<?xml version="1.0" encoding="UTF-8"?>
<!--Generator: Apple Native CoreSVG 175.5-->
<!DOCTYPE svg
PUBLIC "-//W3C//DTD SVG 1.1//EN"
       "http://www.w3.org/Graphics/SVG/1.1/DTD/svg11.dtd">
<svg version="1.1" xmlns="http://www.w3.org/2000/svg" xmlns:xlink="http://www.w3.org/1999/xlink" width="21.5736" height="19.6953">
 <g>
  <rect height="19.6953" opacity="0" width="21.5736" x="0" y="0"/>
  <path d="M4.11816 8.26563C6.3707 8.26563 8.2333 6.40674 8.2333 4.16025C8.2333 1.89492 6.36465 0.0323242 4.11816 0.0323242C1.85889 0.0323242 0 1.89492 0 4.16025C0 6.40674 1.85957 8.26563 4.11816 8.26563ZM3.62617 6.41611C3.45439 6.41611 3.34189 6.32383 3.21963 6.18809L2.029 4.78799C1.94346 4.70176 1.91416 4.59668 1.91416 4.45557C1.91416 4.21475 2.10781 4.01133 2.34424 4.01133C2.50254 4.01133 2.62715 4.0834 2.72686 4.21309L3.60967 5.28584L5.46904 2.33545C5.57109 2.18086 5.7085 2.09229 5.85703 2.09229C6.1002 2.09229 6.30732 2.28897 6.30732 2.50586C6.30732 2.62442 6.26826 2.72647 6.18945 2.85479L4.05459 6.179C3.95625 6.33359 3.8168 6.41611 3.62617 6.41611ZM4.11816 19.6953C6.36465 19.6953 8.2333 17.8297 8.2333 15.5741C8.2333 13.3081 6.36465 11.4522 4.11816 11.4522C1.85586 11.4522 0 13.3209 0 15.5741C0 17.8267 1.85957 19.6953 4.11816 19.6953ZM4.11816 18.5844C2.47432 18.5844 1.11094 17.2082 1.11094 15.5741C1.11094 13.9363 2.48408 12.5571 4.11816 12.5571C5.74922 12.5571 7.12842 13.9394 7.12842 15.5741C7.12842 17.2082 5.74922 18.5844 4.11816 18.5844ZM11.0563 4.73291L20.9942 4.73291C21.3166 4.73291 21.5736 4.48633 21.5736 4.16025C21.5736 3.83789 21.3166 3.59131 20.9942 3.59131L11.0563 3.59131C10.734 3.59131 10.4807 3.83789 10.4807 4.16025C10.4807 4.48633 10.734 4.73291 11.0563 4.73291ZM11.0563 16.1431L20.9942 16.1431C21.3166 16.1431 21.5736 15.8965 21.5736 15.5741C21.5736 15.245 21.3166 14.9984 20.9942 14.9984L11.0563 14.9984C10.734 14.9984 10.4807 15.245 10.4807 15.5741C10.4807 15.8965 10.734 16.1431 11.0563 16.1431Z" fill="#000000" fill-opacity="0.85"/>
 </g>
</svg>
