<?xml version="1.0" encoding="UTF-8"?>
<!--Generator: Apple Native CoreSVG 175.5-->
<!DOCTYPE svg
PUBLIC "-//W3C//DTD SVG 1.1//EN"
       "http://www.w3.org/Graphics/SVG/1.1/DTD/svg11.dtd">
<svg version="1.1" xmlns="http://www.w3.org/2000/svg" xmlns:xlink="http://www.w3.org/1999/xlink" width="9.18448" height="16.2666">
 <g>
  <rect height="16.2666" opacity="0" width="9.18448" x="0" y="0"/>
  <path d="M9.18448 8.12842C9.18448 7.93272 9.10801 7.7626 8.96182 7.62617L1.16084 0.190333C1.02744 0.0636721 0.864065 0 0.670705 0C0.299805 0 0 0.283985 0 0.670705C0 0.857326 0.0734377 1.02139 0.187305 1.14502L7.52978 8.12842L0.187305 15.1118C0.0734377 15.2324 0 15.3928 0 15.5861C0 15.9729 0.299805 16.2568 0.670705 16.2568C0.864065 16.2568 1.02744 16.1901 1.16084 16.0567L8.96182 8.63067C9.10801 8.48448 9.18448 8.32412 9.18448 8.12842Z" fill="#000000" fill-opacity="0.85"/>
 </g>
</svg>
