<?xml version="1.0" encoding="UTF-8"?>
<!--Generator: Apple Native CoreSVG 175.5-->
<!DOCTYPE svg
PUBLIC "-//W3C//DTD SVG 1.1//EN"
       "http://www.w3.org/Graphics/SVG/1.1/DTD/svg11.dtd">
<svg version="1.1" xmlns="http://www.w3.org/2000/svg" xmlns:xlink="http://www.w3.org/1999/xlink" width="19.0095" height="20.3764">
 <g>
  <rect height="20.3764" opacity="0" width="19.0095" x="0" y="0"/>
  <path d="M2.88174 18.9793L14.2527 18.9793C15.9742 18.9793 16.9384 18.003 16.9384 16.1245L16.9384 5.70626L15.7324 6.91222L15.7324 16.0646C15.7324 17.1922 15.1159 17.7733 14.2332 17.7733L2.90801 17.7733C1.80733 17.7733 1.20899 17.1922 1.20899 16.0646L1.20899 4.96241C1.20899 3.83175 1.80733 3.24688 2.90801 3.24688L12.1375 3.24688L13.3435 2.04092L2.88174 2.04092C0.980664 2.04092 0 3.00811 0 4.89571L0 16.1245C0 18.0189 0.980664 18.9793 2.88174 18.9793ZM6.6998 12.5149L8.37402 11.7606L17.48 2.66134L16.351 1.53975L7.25176 10.639L6.45459 12.263C6.38555 12.4018 6.54756 12.5779 6.6998 12.5149ZM18.1391 2.01202L18.7726 1.36505C19.0834 1.04073 19.0895 0.650689 18.7847 0.352642L18.6267 0.187896C18.3512-0.0875928 17.9423-0.0515576 17.6442 0.239751L17.004 0.873248Z" fill="#000000" fill-opacity="0.85"/>
 </g>
</svg>
