<?xml version="1.0" encoding="UTF-8"?>
<!--Generator: Apple Native CoreSVG 175.5-->
<!DOCTYPE svg
PUBLIC "-//W3C//DTD SVG 1.1//EN"
       "http://www.w3.org/Graphics/SVG/1.1/DTD/svg11.dtd">
<svg version="1.1" xmlns="http://www.w3.org/2000/svg" xmlns:xlink="http://www.w3.org/1999/xlink" width="21.8841" height="17.6469">
 <g>
  <rect height="17.6469" opacity="0" width="21.8841" x="0" y="0"/>
  <path d="M2.87871 17.5502L19.1984 17.5502C20.9102 17.5502 21.8841 16.5739 21.8841 14.6954L21.8841 4.65098C21.8841 2.77246 20.9034 1.79922 19.0054 1.79922L9.56377 1.79922C8.81797 1.79922 8.42666 1.66113 7.92022 1.20488L7.35479 0.722656C6.71328 0.15459 6.27276 0 5.29082 0L2.51367 0C0.892481 0 0 0.885743 0 2.67002L0 14.6954C0 16.5897 0.973926 17.5502 2.87871 17.5502ZM2.90127 16.3412C1.80059 16.3412 1.20899 15.7631 1.20899 14.6355L1.20899 2.74883C1.20899 1.71241 1.73194 1.19317 2.74512 1.19317L4.99941 1.19317C5.71357 1.19317 6.08906 1.34102 6.61738 1.80938L7.17979 2.29834C7.79336 2.83174 8.28066 3.00518 9.26563 3.00518L18.9761 3.00518C20.0549 3.00518 20.6781 3.59004 20.6781 4.71768L20.6781 14.6422C20.6781 15.7631 20.0549 16.3412 18.9761 16.3412ZM0.723928 6.60967L21.1655 6.60967L21.1655 5.46807L0.723928 5.46807Z" fill="#000000" fill-opacity="0.85"/>
 </g>
</svg>
