<?xml version="1.0" encoding="UTF-8"?>
<!--Generator: Apple Native CoreSVG 175.5-->
<!DOCTYPE svg
PUBLIC "-//W3C//DTD SVG 1.1//EN"
       "http://www.w3.org/Graphics/SVG/1.1/DTD/svg11.dtd">
<svg version="1.1" xmlns="http://www.w3.org/2000/svg" xmlns:xlink="http://www.w3.org/1999/xlink" width="19.3447" height="14.0207">
 <g>
  <rect height="14.0207" opacity="0" width="19.3447" x="0" y="0"/>
  <path d="M5.31377 1.78301L18.7384 1.78301C19.0779 1.78301 19.3447 1.52295 19.3447 1.18037C19.3447 0.834082 19.0779 0.574023 18.7384 0.574023L5.31377 0.574023C4.96748 0.574023 4.70742 0.834082 4.70742 1.18037C4.70742 1.52295 4.96748 1.78301 5.31377 1.78301ZM5.31377 7.62158L18.7384 7.62158C19.0779 7.62158 19.3447 7.35781 19.3447 7.01524C19.3447 6.67568 19.0779 6.41562 18.7384 6.41562L5.31377 6.41562C4.96748 6.41562 4.70742 6.67568 4.70742 7.01524C4.70742 7.35781 4.96748 7.62158 5.31377 7.62158ZM5.31377 13.4564L18.7384 13.4564C19.0779 13.4564 19.3447 13.1964 19.3447 12.8568C19.3447 12.5075 19.0779 12.2505 18.7384 12.2505L5.31377 12.2505C4.96748 12.2505 4.70742 12.5075 4.70742 12.8568C4.70742 13.1964 4.96748 13.4564 5.31377 13.4564ZM1.16387 2.3375C1.81113 2.3375 2.32774 1.8209 2.32774 1.18037C2.32774 0.536133 1.81113 0.0165039 1.16387 0.0165039C0.516602 0.0165039 0 0.536133 0 1.18037C0 1.8209 0.516602 2.3375 1.16387 2.3375ZM1.16387 8.1791C1.81113 8.1791 2.32774 7.6625 2.32774 7.01524C2.32774 6.36797 1.81113 5.85137 1.16387 5.85137C0.516602 5.85137 0 6.36797 0 7.01524C0 7.6625 0.516602 8.1791 1.16387 8.1791ZM1.16387 14.0207C1.81113 14.0207 2.32774 13.4943 2.32774 12.8568C2.32774 12.2096 1.81113 11.693 1.16387 11.693C0.516602 11.693 0 12.2096 0 12.8568C0 13.4943 0.516602 14.0207 1.16387 14.0207Z" fill="#000000" fill-opacity="0.85"/>
 </g>
</svg>
