<?xml version="1.0" encoding="UTF-8"?>
<!--Generator: Apple Native CoreSVG 175.5-->
<!DOCTYPE svg
PUBLIC "-//W3C//DTD SVG 1.1//EN"
       "http://www.w3.org/Graphics/SVG/1.1/DTD/svg11.dtd">
<svg version="1.1" xmlns="http://www.w3.org/2000/svg" xmlns:xlink="http://www.w3.org/1999/xlink" width="19.5919" height="19.5986">
 <g>
  <rect height="19.5986" opacity="0" width="19.5919" x="0" y="0"/>
  <path d="M9.79443 19.5889C15.1649 19.5889 19.5919 15.1552 19.5919 9.79443C19.5919 4.42695 15.1582 0 9.7877 0C4.42695 0 0 4.42695 0 9.79443C0 15.1552 4.43369 19.5889 9.79443 19.5889ZM5.2001 11.1473C4.44404 11.1473 3.83144 10.5414 3.83144 9.77861C3.83144 9.02861 4.44404 8.42275 5.2001 8.42275C5.94336 8.42275 6.55596 9.02861 6.55596 9.77861C6.55596 10.5414 5.9501 11.1473 5.2001 11.1473ZM9.79443 11.1473C9.04141 11.1473 8.42881 10.5414 8.42881 9.77861C8.42881 9.02861 9.04141 8.42275 9.79443 8.42275C10.5475 8.42275 11.1533 9.02861 11.1533 9.77861C11.1533 10.5414 10.5475 11.1473 9.79443 11.1473ZM14.3985 11.1473C13.6357 11.1473 13.0299 10.5414 13.0299 9.77861C13.0299 9.02861 13.6357 8.42275 14.3985 8.42275C15.1418 8.42275 15.7544 9.02861 15.7544 9.77861C15.7544 10.5414 15.1418 11.1473 14.3985 11.1473Z" fill="#000000" fill-opacity="0.85"/>
 </g>
</svg>
