<?xml version="1.0" encoding="UTF-8"?>
<!--Generator: Apple Native CoreSVG 175.5-->
<!DOCTYPE svg
PUBLIC "-//W3C//DTD SVG 1.1//EN"
       "http://www.w3.org/Graphics/SVG/1.1/DTD/svg11.dtd">
<svg version="1.1" xmlns="http://www.w3.org/2000/svg" xmlns:xlink="http://www.w3.org/1999/xlink" width="23.9457" height="19.2547">
 <g>
  <rect height="19.2547" opacity="0" width="23.9457" x="0" y="0"/>
  <path d="M7.50215 18.8067L20.9234 18.8067C22.5258 18.8067 23.3644 18.0019 23.3644 16.3897L23.3644 15.6739L18.8785 11.4844C18.4734 11.1177 18.0107 10.9237 17.5087 10.9237C16.9932 10.9237 16.5756 11.1012 16.151 11.4746L12.1814 14.9556L10.6304 13.5456C10.2532 13.1978 9.871 13.0324 9.42989 13.0324C9.02178 13.0324 8.67256 13.1947 8.28867 13.5291L5.06123 16.3935C5.06123 18.0019 5.89981 18.8067 7.50215 18.8067ZM11.548 11.6599C12.6898 11.6599 13.6236 10.7096 13.6236 9.55791C13.6236 8.42578 12.6898 7.46944 11.548 7.46944C10.3963 7.46944 9.46553 8.42578 9.46553 9.55791C9.46553 10.7096 10.3963 11.6599 11.548 11.6599ZM2.87871 14.9966L5.14317 14.9966L5.14317 13.7906L2.90127 13.7906C1.80059 13.7906 1.20899 13.2125 1.20899 12.0849L1.20899 2.92383C1.20899 1.79619 1.80059 1.21133 2.90127 1.21133L16.1696 1.21133C17.2484 1.21133 17.8717 1.79619 17.8717 2.92383L17.8717 4.74991L19.0807 4.74991L19.0807 2.85713C19.0807 0.978613 18.1 0.00234365 16.1989 0.00234365L2.87871 0.00234365C0.967188 0.00234365 0 0.969532 0 2.85713L0 12.1418C0 14.0361 0.967188 14.9966 2.87871 14.9966ZM7.50616 19.2547L21.064 19.2547C22.965 19.2547 23.9457 18.2784 23.9457 16.3999L23.9457 7.11221C23.9457 5.23369 22.965 4.25742 21.064 4.25742L7.50616 4.25742C5.5916 4.25742 4.62442 5.22461 4.62442 7.11221L4.62442 16.3999C4.62442 18.2942 5.5916 19.2547 7.50616 19.2547ZM7.52569 18.0457C6.425 18.0457 5.8334 17.4676 5.8334 16.3399L5.8334 7.17891C5.8334 6.05127 6.425 5.46641 7.52569 5.46641L21.0377 5.46641C22.1165 5.46641 22.7367 6.05127 22.7367 7.17891L22.7367 16.3399C22.7367 17.4676 22.1165 18.0457 21.0377 18.0457Z" fill="#000000" fill-opacity="0.85"/>
 </g>
</svg>
