<?xml version="1.0" encoding="UTF-8"?>
<!--Generator: Apple Native CoreSVG 175.5-->
<!DOCTYPE svg
PUBLIC "-//W3C//DTD SVG 1.1//EN"
       "http://www.w3.org/Graphics/SVG/1.1/DTD/svg11.dtd">
<svg version="1.1" xmlns="http://www.w3.org/2000/svg" xmlns:xlink="http://www.w3.org/1999/xlink" width="19.5919" height="19.5986">
 <g>
  <rect height="19.5986" opacity="0" width="19.5919" x="0" y="0"/>
  <path d="M9.79443 19.5889C15.1649 19.5889 19.5919 15.1552 19.5919 9.79443C19.5919 4.42695 15.1582 0 9.7877 0C4.42695 0 0 4.42695 0 9.79443C0 15.1552 4.43369 19.5889 9.79443 19.5889ZM9.79443 18.3223C5.07002 18.3223 1.27334 14.5188 1.27334 9.79443C1.27334 5.07002 5.06328 1.26358 9.7877 1.26358C14.5121 1.26358 18.3253 5.07002 18.3253 9.79443C18.3253 14.5188 14.5188 18.3223 9.79443 18.3223ZM5.354 9.79443C5.354 10.1519 5.61641 10.4075 5.99336 10.4075L9.15811 10.4075L9.15811 13.579C9.15811 13.9492 9.42051 14.2184 9.77793 14.2184C10.1512 14.2184 10.4203 13.959 10.4203 13.579L10.4203 10.4075L13.5918 10.4075C13.962 10.4075 14.2281 10.1519 14.2281 9.79443C14.2281 9.42119 13.965 9.15205 13.5918 9.15205L10.4203 9.15205L10.4203 5.98731C10.4203 5.60733 10.1512 5.34424 9.77793 5.34424C9.42051 5.34424 9.15811 5.61035 9.15811 5.98731L9.15811 9.15205L5.99336 9.15205C5.61338 9.15205 5.354 9.42119 5.354 9.79443Z" fill="#000000" fill-opacity="0.85"/>
 </g>
</svg>
