<?xml version="1.0" encoding="UTF-8"?>
<!--Generator: Apple Native CoreSVG 175.5-->
<!DOCTYPE svg
PUBLIC "-//W3C//DTD SVG 1.1//EN"
       "http://www.w3.org/Graphics/SVG/1.1/DTD/svg11.dtd">
<svg version="1.1" xmlns="http://www.w3.org/2000/svg" xmlns:xlink="http://www.w3.org/1999/xlink" width="18.8217" height="19.0012">
 <g>
  <rect height="19.0012" opacity="0" width="18.8217" x="0" y="0"/>
  <path d="M0 7.58106C0 11.7568 3.40527 15.1621 7.58106 15.1621C9.29541 15.1621 10.8633 14.588 12.1305 13.6246L17.2137 18.7236C17.3898 18.8998 17.6313 18.9981 17.8894 18.9981C18.4505 18.9981 18.8217 18.5758 18.8217 18.0456C18.8217 17.7937 18.7257 17.5619 18.5509 17.3901L13.4909 12.3039C14.5361 11.0105 15.1621 9.36748 15.1621 7.58106C15.1621 3.40527 11.7568 0 7.58106 0C3.40527 0 0 3.40527 0 7.58106ZM1.27334 7.58106C1.27334 4.10528 4.10528 1.27032 7.58106 1.27032C11.0568 1.27032 13.8888 4.10528 13.8888 7.58106C13.8888 11.0568 11.0568 13.8888 7.58106 13.8888C4.10528 13.8888 1.27334 11.0568 1.27334 7.58106Z" fill="#000000" fill-opacity="0.85"/>
 </g>
</svg>
