<?xml version="1.0" encoding="UTF-8"?>
<!--Generator: Apple Native CoreSVG 175.5-->
<!DOCTYPE svg
PUBLIC "-//W3C//DTD SVG 1.1//EN"
       "http://www.w3.org/Graphics/SVG/1.1/DTD/svg11.dtd">
<svg version="1.1" xmlns="http://www.w3.org/2000/svg" xmlns:xlink="http://www.w3.org/1999/xlink" width="17.6818" height="17.7074">
 <g>
  <rect height="17.7074" opacity="0" width="17.6818" x="0" y="0"/>
  <path d="M1.6624 8.03057L6.33955 8.03057C7.4375 8.03057 8.00498 7.49033 8.00498 6.33447L8.00498 1.71494C8.00498 0.559083 7.4375 0.0255859 6.33955 0.0255859L1.6624 0.0255859C0.564454 0.0255859 0 0.559083 0 1.71494L0 6.33447C0 7.49033 0.564454 8.03057 1.6624 8.03057ZM1.68496 6.95029C1.26446 6.95029 1.07725 6.75937 1.07725 6.32539L1.07725 1.72403C1.07725 1.29678 1.26446 1.10586 1.68496 1.10586L6.31328 1.10586C6.73379 1.10586 6.92471 1.29678 6.92471 1.72403L6.92471 6.32539C6.92471 6.75937 6.73379 6.95029 6.31328 6.95029ZM11.346 8.03057L16.0164 8.03057C17.1144 8.03057 17.6818 7.49033 17.6818 6.33447L17.6818 1.71494C17.6818 0.559083 17.1144 0.0255859 16.0164 0.0255859L11.346 0.0255859C10.2413 0.0255859 9.67686 0.559083 9.67686 1.71494L9.67686 6.33447C9.67686 7.49033 10.2413 8.03057 11.346 8.03057ZM11.3686 6.95029C10.9413 6.95029 10.7571 6.75937 10.7571 6.32539L10.7571 1.72403C10.7571 1.29678 10.9413 1.10586 11.3686 1.10586L15.9969 1.10586C16.4174 1.10586 16.6016 1.29678 16.6016 1.72403L16.6016 6.32539C16.6016 6.75937 16.4174 6.95029 15.9969 6.95029ZM1.6624 17.7074L6.33955 17.7074C7.4375 17.7074 8.00498 17.1739 8.00498 16.0181L8.00498 11.3918C8.00498 10.2427 7.4375 9.70244 6.33955 9.70244L1.6624 9.70244C0.564454 9.70244 0 10.2427 0 11.3918L0 16.0181C0 17.1739 0.564454 17.7074 1.6624 17.7074ZM1.68496 16.6271C1.26446 16.6271 1.07725 16.4362 1.07725 16.009L1.07725 11.4076C1.07725 10.9736 1.26446 10.7827 1.68496 10.7827L6.31328 10.7827C6.73379 10.7827 6.92471 10.9736 6.92471 11.4076L6.92471 16.009C6.92471 16.4362 6.73379 16.6271 6.31328 16.6271ZM11.346 17.7074L16.0164 17.7074C17.1144 17.7074 17.6818 17.1739 17.6818 16.0181L17.6818 11.3918C17.6818 10.2427 17.1144 9.70244 16.0164 9.70244L11.346 9.70244C10.2413 9.70244 9.67686 10.2427 9.67686 11.3918L9.67686 16.0181C9.67686 17.1739 10.2413 17.7074 11.346 17.7074ZM11.3686 16.6271C10.9413 16.6271 10.7571 16.4362 10.7571 16.009L10.7571 11.4076C10.7571 10.9736 10.9413 10.7827 11.3686 10.7827L15.9969 10.7827C16.4174 10.7827 16.6016 10.9736 16.6016 11.4076L16.6016 16.009C16.6016 16.4362 16.4174 16.6271 15.9969 16.6271Z" fill="#000000" fill-opacity="0.85"/>
 </g>
</svg>
