<?xml version="1.0" encoding="UTF-8"?>
<!--Generator: Apple Native CoreSVG 175.5-->
<!DOCTYPE svg
PUBLIC "-//W3C//DTD SVG 1.1//EN"
       "http://www.w3.org/Graphics/SVG/1.1/DTD/svg11.dtd">
<svg version="1.1" xmlns="http://www.w3.org/2000/svg" xmlns:xlink="http://www.w3.org/1999/xlink" width="17.001" height="23.1352">
 <g>
  <rect height="23.1352" opacity="0" width="17.001" x="0" y="0"/>
  <path d="M2.87871 21.7201L14.1223 21.7201C16.0271 21.7201 17.001 20.7438 17.001 18.8653L17.001 8.88008C17.001 7.00156 16.0271 6.02529 14.1223 6.02529L11.3341 6.02529L11.3341 7.23428L14.093 7.23428C15.1718 7.23428 15.795 7.81914 15.795 8.94678L15.795 18.7986C15.795 19.9263 15.1718 20.5111 14.093 20.5111L2.90127 20.5111C1.80059 20.5111 1.20899 19.9263 1.20899 18.7986L1.20899 8.94678C1.20899 7.81914 1.80059 7.23428 2.90127 7.23428L5.67295 7.23428L5.67295 6.02529L2.87871 6.02529C0.973926 6.02529 0 6.99248 0 8.88008L0 18.8653C0 20.7529 0.973926 21.7201 2.87871 21.7201ZM8.49863 14.2008C8.82168 14.2008 9.09824 13.931 9.09824 13.6146L9.09824 3.10098L9.05479 1.67852L9.92402 2.57774L11.584 4.30508C11.6935 4.425 11.8464 4.48799 11.9963 4.48799C12.2998 4.48799 12.5427 4.25557 12.5427 3.94902C12.5427 3.79238 12.476 3.67246 12.3628 3.55928L8.93184 0.200098C8.78496 0.0532228 8.65528 0 8.49863 0C8.34873 0 8.21602 0.0532228 8.0624 0.200098L4.62539 3.55928C4.51221 3.67246 4.45225 3.79238 4.45225 3.94902C4.45225 4.25557 4.68164 4.48799 4.99492 4.48799C5.13809 4.48799 5.3045 4.425 5.41094 4.30508L7.06719 2.57774L7.94619 1.67549L7.90273 3.10098L7.90273 13.6146C7.90273 13.931 8.17256 14.2008 8.49863 14.2008Z" fill="#000000" fill-opacity="0.85"/>
 </g>
</svg>
