<?xml version="1.0" encoding="UTF-8"?>
<!--Generator: Apple Native CoreSVG 175.5-->
<!DOCTYPE svg
PUBLIC "-//W3C//DTD SVG 1.1//EN"
       "http://www.w3.org/Graphics/SVG/1.1/DTD/svg11.dtd">
<svg version="1.1" xmlns="http://www.w3.org/2000/svg" xmlns:xlink="http://www.w3.org/1999/xlink" width="22.8699" height="17.7074">
 <g>
  <rect height="17.7074" opacity="0" width="22.8699" x="0" y="0"/>
  <path d="M2.87871 17.7074L19.9882 17.7074C21.9027 17.7074 22.8699 16.7312 22.8699 14.8526L22.8699 2.88037C22.8699 1.00186 21.9027 0.0255859 19.9882 0.0255859L2.87871 0.0255859C0.973926 0.0255859 0 0.986035 0 2.88037L0 14.8526C0 16.747 0.973926 17.7074 2.87871 17.7074ZM2.90127 16.4984C1.80059 16.4984 1.20899 15.9203 1.20899 14.7927L1.20899 2.94033C1.20899 1.8127 1.80059 1.23457 2.90127 1.23457L19.9687 1.23457C21.0475 1.23457 21.6609 1.8127 21.6609 2.94033L21.6609 14.7927C21.6609 15.9203 21.0475 16.4984 19.9687 16.4984ZM7.26885 16.7376L8.45088 16.7376L8.45088 0.959768L7.26885 0.959768ZM5.3999 4.86973C5.64444 4.86973 5.85664 4.65752 5.85664 4.42578C5.85664 4.18428 5.64444 3.97881 5.3999 3.97881L3.09141 3.97881C2.84688 3.97881 2.64141 4.18428 2.64141 4.42578C2.64141 4.65752 2.84688 4.86973 3.09141 4.86973ZM5.3999 7.45655C5.64444 7.45655 5.85664 7.24434 5.85664 7.00283C5.85664 6.76436 5.64444 6.5626 5.3999 6.5626L3.09141 6.5626C2.84688 6.5626 2.64141 6.76436 2.64141 7.00283C2.64141 7.24434 2.84688 7.45655 3.09141 7.45655ZM5.3999 10.0306C5.64444 10.0306 5.85664 9.83184 5.85664 9.59033C5.85664 9.34883 5.64444 9.14336 5.3999 9.14336L3.09141 9.14336C2.84688 9.14336 2.64141 9.34883 2.64141 9.59033C2.64141 9.83184 2.84688 10.0306 3.09141 10.0306Z" fill="#000000" fill-opacity="0.85"/>
 </g>
</svg>
