<?xml version="1.0" encoding="UTF-8"?>
<!--Generator: Apple Native CoreSVG 175.5-->
<!DOCTYPE svg
PUBLIC "-//W3C//DTD SVG 1.1//EN"
       "http://www.w3.org/Graphics/SVG/1.1/DTD/svg11.dtd">
<svg version="1.1" xmlns="http://www.w3.org/2000/svg" xmlns:xlink="http://www.w3.org/1999/xlink" width="22.8699" height="17.6879">
 <g>
  <rect height="17.6879" opacity="0" width="22.8699" x="0" y="0"/>
  <path d="M0.382618 6.69893L22.5584 6.69893L22.5584 5.49297L0.382618 5.49297ZM0.382618 12.1986L22.5584 12.1986L22.5584 10.9896L0.382618 10.9896ZM10.8354 17.306L12.0413 17.306L12.0413 0.382618L10.8354 0.382618ZM2.87871 17.6818L19.9882 17.6818C21.9027 17.6818 22.8699 16.7123 22.8699 14.8338L22.8699 2.85479C22.8699 0.97627 21.9027 0 19.9882 0L2.87871 0C0.973926 0 0 0.967188 0 2.85479L0 14.8338C0 16.7214 0.973926 17.6818 2.87871 17.6818ZM2.90127 16.4759C1.80059 16.4759 1.20899 15.8947 1.20899 14.7671L1.20899 2.92149C1.20899 1.79385 1.80059 1.20899 2.90127 1.20899L19.9687 1.20899C21.0475 1.20899 21.6609 1.79385 21.6609 2.92149L21.6609 14.7671C21.6609 15.8947 21.0475 16.4759 19.9687 16.4759Z" fill="#000000" fill-opacity="0.85"/>
 </g>
</svg>
