<?xml version="1.0" encoding="UTF-8"?>
<!--Generator: Apple Native CoreSVG 175.5-->
<!DOCTYPE svg
PUBLIC "-//W3C//DTD SVG 1.1//EN"
       "http://www.w3.org/Graphics/SVG/1.1/DTD/svg11.dtd">
<svg version="1.1" xmlns="http://www.w3.org/2000/svg" xmlns:xlink="http://www.w3.org/1999/xlink" width="22.5474" height="14.4395">
 <g>
  <rect height="14.4395" opacity="0" width="22.5474" x="0" y="0"/>
  <path d="M17.5448 14.4146C19.3419 14.4146 20.7083 13.4934 21.2828 11.9085L21.3384 11.9085L21.3384 13.8068C21.3384 14.1966 21.5819 14.4395 21.941 14.4395C22.3038 14.4395 22.5474 14.1929 22.5474 13.8001L22.5474 4.07305C22.5474 3.68399 22.3038 3.41719 21.941 3.41719C21.5819 3.41719 21.3384 3.68399 21.3384 4.07305L21.3384 5.98584L21.2828 5.98584C20.7204 4.41816 19.2772 3.43672 17.5448 3.43672C14.8681 3.43672 13.0611 5.65215 13.0611 8.92295C13.0611 12.2224 14.8681 14.4146 17.5448 14.4146ZM17.8083 13.3218C15.7103 13.3218 14.3419 11.5965 14.3419 8.92295C14.3419 6.25547 15.7133 4.5295 17.8083 4.5295C19.9063 4.5295 21.3077 6.32549 21.3077 8.9667C21.3077 11.6079 19.9319 13.3218 17.8083 13.3218ZM0.626564 14.4128C1.01397 14.4128 1.2043 14.2629 1.34746 13.8492L2.81914 9.92364L8.88965 9.92364L10.3583 13.8492C10.5015 14.2629 10.6918 14.4128 11.0725 14.4128C11.4659 14.4128 11.7192 14.176 11.7192 13.8027C11.7192 13.6761 11.696 13.5531 11.636 13.3965L6.7835 0.67549C6.61641 0.240235 6.32197 0.00712931 5.8544 0.00712931C5.40029 0.00712931 5.09609 0.23047 4.93574 0.668752L0.0832033 13.4032C0.0232422 13.5568 0 13.6828 0 13.8095C0 14.1827 0.239844 14.4128 0.626564 14.4128ZM3.19473 8.78438L5.82813 1.70655L5.87393 1.70655L8.50732 8.78438Z" fill="#000000" fill-opacity="0.85"/>
 </g>
</svg>
