<?xml version="1.0" encoding="UTF-8"?>
<!--Generator: Apple Native CoreSVG 175.5-->
<!DOCTYPE svg
PUBLIC "-//W3C//DTD SVG 1.1//EN"
       "http://www.w3.org/Graphics/SVG/1.1/DTD/svg11.dtd">
<svg version="1.1" xmlns="http://www.w3.org/2000/svg" xmlns:xlink="http://www.w3.org/1999/xlink" width="18.6731" height="23.1412">
 <g>
  <rect height="23.1412" opacity="0" width="18.6731" x="0" y="0"/>
  <path d="M5.16299 4.2419L6.3585 4.2419L6.3585 2.17022C6.3585 1.52881 6.79453 1.12813 7.4834 1.12813L11.1793 1.12813C11.8712 1.12813 12.3072 1.52881 12.3072 2.17022L12.3072 4.2419L13.5027 4.2419L13.5027 2.10586C13.5027 0.789747 12.6514 0 11.2413 0L7.41836 0C6.01436 0 5.16299 0.789747 5.16299 2.10586ZM0.571974 4.84151L18.114 4.84151C18.4266 4.84151 18.6731 4.57842 18.6731 4.26885C18.6731 3.95322 18.4235 3.6999 18.114 3.6999L0.571974 3.6999C0.269141 3.6999 0 3.95625 0 4.26885C0 4.58819 0.269141 4.84151 0.571974 4.84151ZM4.91387 21.5331L13.769 21.5331C15.0263 21.5331 15.9335 20.6612 15.9958 19.4131L16.7278 4.67412L15.5067 4.67412L14.7979 19.2925C14.7754 19.9208 14.2889 20.3885 13.6643 20.3885L5.00518 20.3885C4.39102 20.3885 3.90752 19.9141 3.8752 19.2925L3.14248 4.67715L1.95439 4.67715L2.69316 19.4198C2.75547 20.668 3.64619 21.5331 4.91387 21.5331ZM6.42627 18.5066C6.72168 18.5066 6.91133 18.3146 6.90459 18.0455L6.57764 7.23604C6.5709 6.9669 6.37217 6.7877 6.09932 6.7877C5.80693 6.7877 5.61123 6.97363 5.61797 7.24883L5.93818 18.0516C5.94492 18.3244 6.13457 18.5066 6.42627 18.5066ZM9.34111 18.5066C9.6335 18.5066 9.84268 18.3177 9.84268 18.0455L9.84268 7.24883C9.84268 6.97666 9.6335 6.7877 9.34111 6.7877C9.04873 6.7877 8.84932 6.97666 8.84932 7.24883L8.84932 18.0455C8.84932 18.3177 9.04873 18.5066 9.34111 18.5066ZM12.2597 18.5127C12.5416 18.5127 12.7343 18.3305 12.741 18.0546L13.0612 7.25489C13.068 6.97666 12.8723 6.79375 12.5799 6.79375C12.307 6.79375 12.1053 6.96992 12.1016 7.2458L11.7813 18.0516C11.7746 18.3177 11.9643 18.5127 12.2597 18.5127Z" fill="#000000" fill-opacity="0.85"/>
 </g>
</svg>
